<svg width="40" height="40" viewBox="0 0 40 40" fill="none" xmlns="http://www.w3.org/2000/svg">
<g id="airplane_ticket">
<path id="Vector" d="M33.65 6.66669H6.66668C4.83334 6.66669 3.35001 8.16669 3.35001 10V16.6667C5.18334 16.6667 6.66668 18.1667 6.66668 20C6.66668 21.8334 5.18334 23.3334 3.33334 23.3334V30C3.33334 31.8334 4.83334 33.3334 6.66668 33.3334H33.3333C35.1667 33.3334 36.6667 31.8334 36.6667 30V10C36.6667 8.16669 35.3167 6.66669 33.65 6.66669ZM33.3333 30H6.66668V25.7667C8.65001 24.6167 10 22.45 10 20C10 17.5334 8.66668 15.3834 6.68334 14.2334L6.66668 10H33.3333V30ZM14.7833 26.1L12.0167 21.3L13.5667 20.8834L15.6667 22.5334L19.65 21.4667L15.65 14.5334L17.9833 13.9L24.6667 20.1334L28.7333 19.05C29.5833 18.8167 30.4667 19.3334 30.7 20.1834C30.9167 21.0334 30.4167 21.9167 29.55 22.1667L14.7833 26.1Z" fill="#71C9CE"/>
</g>
</svg>
