<svg width="30" height="28" viewBox="0 0 30 28" fill="none" xmlns="http://www.w3.org/2000/svg">
<g id="Group 316">
<path id="Vector" d="M15.0752 0.54834C6.98604 0.54834 0.462532 5.76709 0.462532 12.1027C0.462532 16.2151 3.17631 19.8161 7.24698 21.8723L5.86921 27.0181C5.84323 27.0952 5.83924 27.178 5.85767 27.2572C5.87611 27.3365 5.91624 27.4091 5.97359 27.4668C6.0572 27.5406 6.16479 27.5814 6.27628 27.5816C6.36872 27.5742 6.45642 27.5377 6.52678 27.4773L12.4553 23.4797C13.3305 23.6005 14.2126 23.6632 15.0961 23.6675C23.1748 23.6675 29.7087 18.4488 29.7087 12.1027C29.7087 5.75665 23.1539 0.54834 15.0752 0.54834Z" fill="#392020"/>
<path id="Vector_2" d="M5.5765 10.2761H3.97954C3.78161 10.2819 3.58612 10.2312 3.41591 10.13C3.34034 10.0826 3.27537 10.0201 3.22508 9.9465C3.17479 9.87286 3.14026 9.78962 3.12366 9.702C3.11859 9.64645 3.11859 9.59064 3.12366 9.53509C3.1187 9.43115 3.13888 9.32748 3.18249 9.233C3.22609 9.13851 3.29184 9.05598 3.37416 8.99231C3.55613 8.86053 3.77576 8.79091 4.00042 8.79393H8.81215C9.01166 8.78692 9.20848 8.84162 9.37578 8.95052C9.45314 8.99578 9.51948 9.0577 9.57002 9.1317C9.62056 9.20571 9.65403 9.28999 9.66804 9.3785C9.67313 9.43056 9.67313 9.48303 9.66804 9.53509C9.67296 9.64053 9.65283 9.74561 9.60928 9.84177C9.56574 9.93793 9.50003 10.0223 9.41754 10.0882C9.24 10.2198 9.02249 10.2862 8.80171 10.2761H7.25695V15.7663C7.26323 15.8833 7.24512 16.0002 7.2038 16.1098C7.16247 16.2194 7.09882 16.3193 7.01688 16.403C6.93831 16.483 6.84386 16.5458 6.7396 16.5871C6.63534 16.6284 6.52357 16.6475 6.4115 16.643C6.21548 16.6486 6.02361 16.586 5.86875 16.4657C5.72131 16.3482 5.62125 16.1813 5.58694 15.9959C5.57662 15.9197 5.57662 15.8425 5.58694 15.7663L5.5765 10.2761Z" fill="#FEE500"/>
<path id="Vector_3" d="M10.1288 9.20097C10.1747 9.02921 10.2825 8.88047 10.4315 8.78344C10.5902 8.69347 10.7711 8.65006 10.9533 8.65819H11.35C11.5434 8.65126 11.7349 8.69824 11.9031 8.79388C12.0814 8.91378 12.2081 9.09634 12.258 9.30532L14.3456 15.2026C14.3997 15.3564 14.445 15.5133 14.4812 15.6724C14.4848 15.7384 14.4848 15.8046 14.4812 15.8706C14.4848 15.9723 14.466 16.0736 14.4264 16.1674C14.3867 16.2611 14.3271 16.3451 14.2516 16.4134C14.1785 16.4883 14.0907 16.5474 13.9937 16.5869C13.8967 16.6264 13.7927 16.6455 13.688 16.643C13.527 16.659 13.3653 16.6204 13.229 16.5333C13.0926 16.4462 12.9896 16.3157 12.9365 16.1629L12.4981 14.8791H9.753L9.31463 16.1629C9.26278 16.3187 9.15849 16.4517 9.01956 16.5393C8.88062 16.6268 8.71562 16.6635 8.55268 16.643C8.37618 16.6476 8.2033 16.5924 8.06211 16.4864C7.92455 16.377 7.83175 16.2212 7.80117 16.0481C7.79563 15.9891 7.79563 15.9296 7.80117 15.8706C7.78325 15.767 7.78325 15.6612 7.80117 15.5576C7.80117 15.4427 7.87423 15.3174 7.91598 15.2026L10.1288 9.20097ZM11.1725 10.5684L10.1809 13.6996H12.1536L11.1725 10.5684Z" fill="#FEE500"/>
<path id="Vector_4" d="M14.7203 9.53519C14.7097 9.30095 14.7922 9.07206 14.9499 8.89851C15.0301 8.81766 15.1263 8.75448 15.2324 8.71313C15.3384 8.67178 15.452 8.65307 15.5657 8.65834C15.7612 8.65606 15.9521 8.71848 16.1085 8.83583C16.2534 8.95826 16.3497 9.12856 16.3799 9.31591C16.3901 9.38862 16.3901 9.46249 16.3799 9.53519V15.0254H19.2502C19.4492 15.0228 19.6447 15.077 19.8138 15.1818C19.8898 15.2287 19.9551 15.2911 20.0055 15.3648C20.0558 15.4385 20.0901 15.522 20.1061 15.6098C20.1061 15.6098 20.1061 15.7142 20.1061 15.7664C20.111 15.8704 20.0909 15.9739 20.0473 16.0684C20.0036 16.1629 19.9379 16.2455 19.8556 16.3092C19.6736 16.441 19.454 16.5105 19.2293 16.5074H15.7014C15.4767 16.5219 15.2534 16.4634 15.0647 16.3405C14.896 16.2143 14.7835 16.0269 14.7516 15.8187C14.7439 15.704 14.7439 15.5888 14.7516 15.4741L14.7203 9.53519Z" fill="#FEE500"/>
<path id="Vector_5" d="M20.2941 9.53518C20.2879 9.30163 20.3699 9.07431 20.5238 8.8985C20.6802 8.75635 20.8809 8.67242 21.0919 8.66101C21.303 8.6496 21.5115 8.71136 21.6823 8.83582C21.8305 8.95717 21.9304 9.1274 21.9642 9.31591C21.9693 9.38888 21.9693 9.46221 21.9642 9.53518V12.0923L24.6049 9.04452C24.7066 8.94054 24.8147 8.84303 24.9284 8.75236C25.0356 8.68852 25.1586 8.65589 25.2833 8.65833C25.4657 8.65733 25.6441 8.71197 25.7948 8.81492C25.8657 8.86271 25.9263 8.92437 25.973 8.9961C26.0196 9.06783 26.0513 9.1482 26.0661 9.23245C26.0704 9.25311 26.0704 9.27447 26.0661 9.29514C26.0611 9.31923 26.0611 9.34405 26.0661 9.36814C26.0658 9.47798 26.037 9.5859 25.9826 9.68132C25.9272 9.78236 25.8607 9.87678 25.7843 9.96303L24.0517 11.8627L26.1392 15.0984V15.2027C26.2476 15.3523 26.3321 15.5179 26.3897 15.6934V15.7455C26.4018 15.8664 26.3843 15.9885 26.3389 16.1012C26.2934 16.214 26.2213 16.3139 26.1288 16.3926C25.9546 16.5242 25.7416 16.5941 25.5234 16.591C25.3784 16.597 25.2344 16.5645 25.1059 16.497C24.9669 16.4038 24.8523 16.2785 24.7719 16.1317L22.8305 13.0004L21.9015 13.9712V15.7142C21.9078 15.9477 21.8258 16.175 21.6719 16.3508C21.5894 16.4315 21.4913 16.4944 21.3836 16.5357C21.2759 16.577 21.1609 16.5958 21.0457 16.591C20.8531 16.595 20.665 16.5323 20.5133 16.4135C20.3659 16.296 20.2658 16.1293 20.2315 15.9439C20.2212 15.8677 20.2212 15.7904 20.2315 15.7142L20.2941 9.53518Z" fill="#FEE500"/>
</g>
</svg>
