<svg width="28" height="28" viewBox="0 0 28 28" fill="none" xmlns="http://www.w3.org/2000/svg">
<g id="person_outline">
<path id="Vector" d="M14 6.88335C15.3533 6.88335 16.45 7.98002 16.45 9.33335C16.45 10.6867 15.3533 11.7834 14 11.7834C12.6467 11.7834 11.55 10.6867 11.55 9.33335C11.55 7.98002 12.6467 6.88335 14 6.88335ZM14 17.3834C17.465 17.3834 21.1167 19.0867 21.1167 19.8334V21.1167H6.88334V19.8334C6.88334 19.0867 10.535 17.3834 14 17.3834ZM14 4.66669C11.4217 4.66669 9.33334 6.75502 9.33334 9.33335C9.33334 11.9117 11.4217 14 14 14C16.5783 14 18.6667 11.9117 18.6667 9.33335C18.6667 6.75502 16.5783 4.66669 14 4.66669ZM14 15.1667C10.885 15.1667 4.66667 16.73 4.66667 19.8334V23.3334H23.3333V19.8334C23.3333 16.73 17.115 15.1667 14 15.1667Z" fill="white"/>
</g>
</svg>
