<svg width="164" height="30" viewBox="0 0 164 30" fill="none" xmlns="http://www.w3.org/2000/svg">
<g id="Notch">
<g id="Notch_2">
<path d="M4.76824 -2H159.184V13C159.184 22.3888 151.572 30 142.184 30H21.7682C12.3794 30 4.76824 22.3888 4.76824 13V-2Z" fill="black"/>
<path d="M5 -2H-4.70684e-06C-4.12598e-05 -2 3.18459e-05 -2 -4.70684e-06 -2C2.65059 -2 4.79943 0.148747 4.79943 2.79934C4.79943 2.86656 4.79805 2.93345 4.79531 3H5V-2Z" fill="black"/>
<path d="M159 -2H164C164 -2 164 -2 164 -2C161.349 -2 159.201 0.148747 159.201 2.79934C159.201 2.86656 159.202 2.93345 159.205 3H159V-2Z" fill="black"/>
</g>
</g>
</svg>
