<svg width="28" height="28" viewBox="0 0 28 28" fill="none" xmlns="http://www.w3.org/2000/svg">
<g id="travel_explore">
<path id="Vector" d="M22.225 19.7166C22.6917 18.9 23.0417 17.9666 23.0417 16.9166C23.0417 14 20.7083 11.6666 17.7917 11.6666C14.875 11.6666 12.5417 14 12.5417 16.9166C12.5417 19.8333 14.875 22.1666 17.7917 22.1666C18.8417 22.1666 19.775 21.8166 20.5917 21.35L24.325 25.0833L25.9583 23.45L22.225 19.7166ZM17.7917 19.8333C16.1583 19.8333 14.875 18.55 14.875 16.9166C14.875 15.2833 16.1583 14 17.7917 14C19.425 14 20.7083 15.2833 20.7083 16.9166C20.7083 18.55 19.425 19.8333 17.7917 19.8333ZM13.7083 23.3333V25.6666C7.26834 25.6666 2.04167 20.44 2.04167 14C2.04167 7.55998 7.26834 2.33331 13.7083 2.33331C19.355 2.33331 24.0567 6.34665 25.1417 11.6666H22.7267C21.98 8.79665 19.9267 6.45165 17.2083 5.35498V5.83331C17.2083 7.11665 16.1583 8.16665 14.875 8.16665H12.5417V10.5C12.5417 11.1416 12.0167 11.6666 11.375 11.6666H9.04167V14H11.375V17.5H10.2083L4.62001 11.9116C4.46834 12.5883 4.37501 13.2766 4.37501 14C4.37501 19.145 8.56334 23.3333 13.7083 23.3333Z" fill="white"/>
</g>
</svg>
